<?xml version="1.0" encoding="UTF-8" standalone="no"?>
<svg
   xmlns:dc="http://purl.org/dc/elements/1.1/"
   xmlns:cc="http://creativecommons.org/ns#"
   xmlns:rdf="http://www.w3.org/1999/02/22-rdf-syntax-ns#"
   xmlns:svg="http://www.w3.org/2000/svg"
   xmlns="http://www.w3.org/2000/svg"
   xmlns:sodipodi="http://sodipodi.sourceforge.net/DTD/sodipodi-0.dtd"
   xmlns:inkscape="http://www.inkscape.org/namespaces/inkscape"
   version="1.1"
   id="Camada_1"
   x="0px"
   y="0px"
   viewBox="0 0 724.81999 133.67797"
   xml:space="preserve"
   sodipodi:docname="Aluguenahora.logo.svg"
   width="724.82001"
   height="133.67798"
   inkscape:version="1.0.1 (c497b03c, 2020-09-10)"><metadata
   id="metadata185"><rdf:RDF><cc:Work
       rdf:about=""><dc:format>image/svg+xml</dc:format><dc:type
         rdf:resource="http://purl.org/dc/dcmitype/StillImage" /><dc:title></dc:title></cc:Work></rdf:RDF></metadata><defs
   id="defs183" /><sodipodi:namedview
   pagecolor="#ffffff"
   bordercolor="#666666"
   borderopacity="1"
   objecttolerance="10"
   gridtolerance="10"
   guidetolerance="10"
   inkscape:pageopacity="0"
   inkscape:pageshadow="2"
   inkscape:window-width="1440"
   inkscape:window-height="900"
   id="namedview181"
   showgrid="false"
   fit-margin-top="0"
   fit-margin-left="0"
   fit-margin-right="0"
   fit-margin-bottom="0"
   inkscape:zoom="1.0381669"
   inkscape:cx="362.415"
   inkscape:cy="43.777982"
   inkscape:window-x="0"
   inkscape:window-y="0"
   inkscape:window-maximized="0"
   inkscape:current-layer="Camada_1" />
<style
   type="text/css"
   id="style10">
	.st0{fill:#312783;}
	.st1{fill:#DBBD00;}
	.st2{fill:#FAC39D;}
	.st3{fill:#FFED00;}
	.st4{fill:#C2A782;}
	.st5{fill:#C90C0F;}
	.st6{fill:#FDD5A5;}
	.st7{fill:#00702A;}
	.st8{fill:#F6F6F6;}
	.st9{fill:#E7B593;}
	.st10{fill:#F7B49D;}
	.st11{fill:none;}
</style>
<g
   id="g176"
   transform="translate(-58.53,-253.86202)">
	<path
   class="st0"
   d="m 170.74,331.13 h 10.62 l 21.16,55.01 h -10.88 l -4.3,-11.33 h -22.45 l -4.48,11.33 h -10.88 z m 5.38,14.59 -7.38,18.88 h 14.72 z"
   id="path12" />
	<polygon
   class="st0"
   points="221.09,376.16 236.34,376.16 236.34,386.14 210.62,386.14 210.62,331.13 221.09,331.13 "
   id="polygon14" />
	<path
   class="st0"
   d="m 243.93,331.13 h 10.51 v 35.57 c 0,3.06 0.27,5.23 0.81,6.5 0.53,1.27 1.42,2.29 2.65,3.05 1.23,0.76 2.72,1.14 4.47,1.14 1.84,0 3.43,-0.42 4.77,-1.27 1.33,-0.85 2.26,-1.92 2.77,-3.23 0.51,-1.31 0.77,-3.8 0.77,-7.49 v -34.26 h 10.51 v 32.79 c 0,5.53 -0.31,9.37 -0.93,11.52 -0.62,2.14 -1.81,4.21 -3.57,6.21 -1.76,2 -3.78,3.47 -6.08,4.43 -2.29,0.96 -4.96,1.44 -8,1.44 -3.99,0 -7.46,-0.92 -10.41,-2.75 -2.95,-1.83 -5.07,-4.13 -6.34,-6.88 -1.27,-2.75 -1.91,-7.41 -1.91,-13.97 v -32.8 z"
   id="path16" />
	<path
   class="st0"
   d="m 344.11,340.11 -7.37,7.29 c -4.67,-4.94 -10.11,-7.4 -16.32,-7.4 -5.42,0 -9.95,1.79 -13.61,5.38 -3.66,3.59 -5.48,7.95 -5.48,13.09 0,5.31 1.9,9.81 5.69,13.5 3.79,3.69 8.47,5.54 14.04,5.54 3.62,0 6.67,-0.76 9.15,-2.28 2.48,-1.52 4.48,-3.9 6.01,-7.14 h -15.93 v -9.83 h 27.67 l 0.07,2.32 c 0,4.81 -1.25,9.38 -3.74,13.69 -2.49,4.31 -5.72,7.6 -9.69,9.87 -3.96,2.27 -8.61,3.4 -13.95,3.4 -5.71,0 -10.8,-1.24 -15.28,-3.72 -4.47,-2.48 -8.02,-6.01 -10.62,-10.6 -2.6,-4.59 -3.91,-9.54 -3.91,-14.85 0,-7.28 2.4,-13.61 7.22,-19 5.71,-6.41 13.14,-9.61 22.29,-9.61 4.79,0 9.26,0.88 13.42,2.65 3.54,1.49 6.98,4.06 10.34,7.7"
   id="path18" />
	<path
   class="st0"
   d="m 357.28,331.13 h 10.51 v 35.57 c 0,3.06 0.27,5.23 0.81,6.5 0.53,1.27 1.42,2.29 2.65,3.05 1.23,0.76 2.72,1.14 4.47,1.14 1.84,0 3.43,-0.42 4.77,-1.27 1.33,-0.85 2.26,-1.92 2.77,-3.23 0.51,-1.31 0.76,-3.8 0.76,-7.49 v -34.26 h 10.51 v 32.79 c 0,5.53 -0.31,9.37 -0.93,11.52 -0.62,2.14 -1.81,4.21 -3.57,6.21 -1.76,2 -3.78,3.47 -6.08,4.43 -2.29,0.96 -4.96,1.44 -8,1.44 -3.99,0 -7.46,-0.92 -10.41,-2.75 -2.95,-1.83 -5.07,-4.13 -6.34,-6.88 -1.27,-2.75 -1.91,-7.41 -1.91,-13.97 v -32.8 z"
   id="path20" />
	<polygon
   class="st0"
   points="436.74,341.38 417.11,341.38 417.11,351.33 436.74,351.33 436.74,361.39 417.11,361.39 417.11,375.86 436.74,375.86 436.74,386.14 406.71,386.14 406.71,331.13 436.74,331.13 "
   id="polygon22" />
	<path
   class="st0"
   d="m 450.1,336.51 v 48.64 c 0,0.54 -0.38,1 -0.92,1 -0.46,0 -1,-0.46 -1,-1 v -51.24 -0.23 c 0,-0.31 0.15,-0.61 0.38,-0.84 0.54,-0.31 1.07,-0.23 1.38,0.15 l 35.38,49.17 v -48.25 c 0,-0.54 0.54,-1 1,-1 0.54,0 0.92,0.46 0.92,1 v 51.24 c 0,0.54 -0.38,1 -0.92,1 -0.38,0 -0.77,-0.23 -0.92,-0.61 -0.08,0 -0.08,0 -0.08,-0.08 z"
   id="path24" />
	<path
   class="st0"
   d="m 537.33,371.59 h -26.81 l -5.13,13.71 c -0.08,0.38 -0.46,0.69 -0.84,0.69 -0.08,0 -0.23,-0.08 -0.38,-0.08 -0.46,-0.23 -0.69,-0.76 -0.46,-1.3 l 19.3,-51.47 c 0.15,-0.46 0.54,-0.69 1,-0.61 0.38,0 0.76,0.23 1,0.61 l 19.3,51.47 c 0.23,0.54 -0.08,1.07 -0.54,1.3 -0.15,0 -0.23,0.08 -0.31,0.08 -0.38,0 -0.77,-0.31 -1,-0.69 z m -26.04,-1.99 h 25.27 l -12.64,-33.55 z"
   id="path26" />
	<polygon
   class="st0"
   points="565.6,351.89 583.96,351.89 583.96,331.13 594.54,331.13 594.54,386.14 583.96,386.14 583.96,362.02 565.6,362.02 565.6,386.14 554.98,386.14 554.98,331.13 565.6,331.13 "
   id="polygon28" />
	<path
   class="st0"
   d="m 633.08,329.75 c 7.78,0 14.48,2.82 20.08,8.45 5.6,5.63 8.4,12.5 8.4,20.6 0,8.03 -2.76,14.82 -8.29,20.38 -5.53,5.56 -12.23,8.34 -20.11,8.34 -8.26,0 -15.12,-2.85 -20.58,-8.56 -5.46,-5.71 -8.19,-12.49 -8.19,-20.34 0,-5.26 1.27,-10.1 3.82,-14.51 2.54,-4.41 6.04,-7.91 10.5,-10.49 4.43,-2.58 9.23,-3.87 14.37,-3.87 M 632.97,340 c -5.09,0 -9.37,1.77 -12.84,5.31 -3.47,3.54 -5.2,8.04 -5.2,13.5 0,6.08 2.18,10.9 6.55,14.43 3.39,2.77 7.29,4.15 11.68,4.15 4.97,0 9.2,-1.79 12.69,-5.38 3.49,-3.59 5.24,-8.01 5.24,-13.28 0,-5.23 -1.76,-9.67 -5.28,-13.29 -3.52,-3.63 -7.8,-5.44 -12.84,-5.44"
   id="path30" />
	<path
   class="st0"
   d="m 672.14,331.13 h 11.09 c 6.08,0 10.4,0.54 12.98,1.63 2.58,1.08 4.65,2.88 6.22,5.4 1.57,2.52 2.35,5.5 2.35,8.94 0,3.61 -0.87,6.64 -2.6,9.07 -1.73,2.43 -4.34,4.27 -7.83,5.52 l 13.03,24.46 h -11.44 l -12.37,-23.3 h -0.96 v 23.3 h -10.47 z m 10.47,21.51 h 3.28 c 3.33,0 5.62,-0.44 6.88,-1.31 1.25,-0.88 1.88,-2.33 1.88,-4.35 0,-1.2 -0.31,-2.24 -0.93,-3.13 -0.62,-0.89 -1.45,-1.53 -2.5,-1.91 -1.04,-0.39 -2.96,-0.58 -5.74,-0.58 h -2.87 z"
   id="path32" />
	<path
   class="st0"
   d="m 732.63,331.13 h 10.62 l 21.16,55.01 h -10.88 l -4.3,-11.33 h -22.45 l -4.47,11.33 h -10.88 z m 5.38,14.59 -7.38,18.88 h 14.72 z"
   id="path34" />
	<path
   class="st0"
   d="m 776.92,374.4 c 1.77,0 3.28,0.62 4.54,1.87 1.26,1.25 1.89,2.76 1.89,4.53 0,1.75 -0.63,3.25 -1.89,4.51 -1.26,1.26 -2.77,1.89 -4.54,1.89 -1.77,0 -3.28,-0.62 -4.52,-1.87 -1.25,-1.25 -1.87,-2.75 -1.87,-4.53 0,-1.77 0.62,-3.28 1.87,-4.53 1.24,-1.25 2.74,-1.87 4.52,-1.87 m -5.16,-44.65 h 10.32 v 40.2 h -10.32 z"
   id="path36" />
	<path
   class="st1"
   d="m 131.45,320.35 c 0,0 -1.37,4.97 -1.92,5.06 -0.54,0.09 -2.26,-3.79 -2.26,-3.79 z"
   id="path38" />
	<path
   class="st2"
   d="m 170.52,295.1 c 0.67,0.42 1.56,1.34 1.86,2.7 0.49,2.17 -0.79,3.01 -2.37,4.29 1,0.63 4.03,2.66 4.59,5.6 0.86,4.47 -1.75,10.47 -2.4,11.06 -1.61,1.42 -9.72,1.02 -11.14,1.08 0,0 -17.49,1.8 -29.27,3.31 -11.79,1.51 -13.32,-1.68 -13.32,-1.68 -0.66,-1.48 0.39,-5.15 1.6,-8.13 1.2,-2.98 6.02,-6.05 6.02,-6.05 6.64,-0.12 9.31,0.68 13.73,0.86 5.03,-0.22 7.05,0.63 10.36,1.15 4.83,0.75 9.64,0.06 9.64,0.06 0,0 -0.11,-3.91 -0.24,-4.73 -0.14,-0.83 -0.35,-1.65 2.9,-3.83 3.23,-2.18 7.35,-6.12 8.04,-5.69"
   id="path40" />
	<path
   class="st3"
   d="m 120.55,328.78 c 0,0 2.6,-1.81 4.31,-2.35 1.71,-0.53 4.66,-1.02 4.66,-1.02 0,0 -1.29,-6.92 -1.14,-12.22 0.15,-5.31 1.14,-5.91 1.14,-5.91 0,0 -11.81,-0.62 -18.98,-0.19 z"
   id="path42" />
	<path
   class="st0"
   d="m 127.03,350.52 c 0,0 1.8,8.21 -0.9,22.59 0,0 17.46,8.09 17.46,11.78 0,3.68 -13.58,0.72 -31.39,0 0,0 1.73,-19.45 -5.75,-19.45 -7.48,0 -8.52,19.43 -8.52,19.43 0,0 -7.11,1.09 -14.83,0.92 -6.92,-0.15 -14.51,-1.56 -14.97,-1.81 -0.97,-0.54 -3.6,-1.27 0,-3.56 3.6,-2.29 12.82,-5.68 12.82,-5.68 0,0 0.35,-6.04 1.87,-13.23 1.52,-7.19 3.26,-10.99 3.26,-10.99 z"
   id="path44" />
	<path
   class="st3"
   d="m 130.06,349.1 c 0,0 -6.74,6.63 -24.92,6.62 -18.18,-0.01 -22.35,-2.52 -22.35,-2.52 0.21,-1.01 1.15,-3.61 1.24,-4.84 0.26,-3.48 0.27,-7.2 -0.32,-10.49 -0.65,-3.63 -1.61,-7.45 -1.61,-7.45 l 0.55,-0.86 1.71,-2.67 0.52,-1.02 0.19,-14.26 c 0.23,-0.05 3.05,-0.49 5.46,-0.84 1.44,-0.21 2.75,-0.39 3.27,-0.44 0,0 3.02,-0.78 3.03,-0.78 1.53,-0.14 3.81,-1.27 4.33,-1.47 0.04,-0.02 0.07,-0.03 0.09,-0.03 l 9.31,-0.95 0.07,-0.02 c 6.32,-0.27 10.23,0.73 10.23,0.73 l 0.04,0.05 3.48,16.49 z"
   id="path46" />
	<path
   class="st0"
   d="m 109.42,322.1 c -0.58,-3.34 1.75,-6.27 5.2,-6.53 3.45,-0.26 6.71,2.24 7.29,5.58 0.58,3.34 -1.75,6.27 -5.2,6.53 -3.45,0.26 -6.72,-2.24 -7.29,-5.58"
   id="path48" />
	<path
   class="st3"
   d="m 118.35,317.46 c 0,0 0.89,2.84 1.64,6.37 l -6.62,1.59 -2.13,-6.09 2.93,1.12 0.32,-3.17 2.78,2.71 z"
   id="path50" />
	<path
   class="st1"
   d="m 65.07,324.06 c 0,0 1.54,2.43 2.63,2.43 1.08,0 4.52,-3.36 4.52,-3.36 z"
   id="path52" />
	<path
   class="st2"
   d="m 68.56,322.85 c 0,0 6.46,-3.49 9.67,-2.72 3.2,0.78 6.83,2.12 7.5,3.66 0.67,1.54 -7.39,15.18 -15.14,17.43 -7.75,2.25 -11.89,-2.25 -11.89,-2.25 0,0 -0.38,-6.42 9.86,-16.12"
   id="path54" />
	<path
   class="st3"
   d="m 65.07,324.06 c 0,0 11.21,-1.47 18.98,6.88 l 10.72,-12.85 0.41,-1.38 0.13,-0.43 0.86,-2.87 0.16,-0.53 c 0,0 -0.12,-0.04 -0.33,-0.11 -0.37,-0.12 -1.02,-0.33 -1.84,-0.53 -0.47,-0.12 -0.98,-0.24 -1.53,-0.34 -0.84,-0.16 -0.99,-0.29 -2.01,-0.32 -4.54,-0.13 -6.42,-0.02 -10.48,0.67 -4.76,0.82 -12.08,5.72 -15.07,11.81"
   id="path56" />
	<path
   class="st2"
   d="m 86.13,340.76 c 4.44,-0.46 14.09,2.19 14.5,2.6 1.59,1.59 -1.63,8.13 -5.71,6.74 -2.23,-0.76 -13.75,-0.03 -15.31,-0.61 -1.55,-0.58 -16.55,-3.08 -21.08,-8.62 0,0 0.11,-6.46 3.36,-9.35 3.25,-2.9 10.31,1.34 13.82,3.92 4.57,3.35 5.98,5.77 10.42,5.32"
   id="path58" />
	<path
   class="st4"
   d="m 75.72,335.44 c -0.9,-0.62 -1.8,-1.2 -2.72,-1.74 -0.92,-0.53 -1.86,-1.02 -2.83,-1.43 -0.96,-0.44 -1.96,-0.77 -2.97,-1.06 l -0.77,-0.2 -0.78,-0.16 c -0.13,-0.03 -0.26,-0.06 -0.39,-0.08 l -0.4,-0.05 c -0.27,-0.04 -0.54,-0.08 -0.81,-0.13 0.27,-0.04 0.54,-0.08 0.81,-0.11 0.14,-0.02 0.27,-0.03 0.41,-0.04 0.14,0 0.27,0 0.41,0 l 0.83,0.02 c 0.27,0.03 0.55,0.07 0.82,0.1 0.14,0.02 0.27,0.03 0.41,0.06 l 0.4,0.09 c 0.27,0.07 0.54,0.12 0.81,0.2 0.53,0.17 1.05,0.35 1.56,0.57 1.01,0.45 1.98,1 2.85,1.67 0.89,0.65 1.71,1.4 2.36,2.29"
   id="path60" />
	<path
   class="st0"
   d="m 111.69,309.73 c -0.88,1.85 -8.95,5.1 -15.82,4.68 -0.31,-0.02 -0.62,-0.04 -0.92,-0.08 -0.16,-0.02 -0.32,-0.04 -0.49,-0.06 -0.14,-0.02 -0.29,-0.04 -0.44,-0.06 -0.76,-0.13 -1.38,-0.37 -1.88,-0.68 -0.27,-0.17 -0.51,-0.36 -0.71,-0.58 -0.04,-0.04 -0.08,-0.08 -0.12,-0.13 -0.03,-0.03 -0.05,-0.06 -0.07,-0.1 -0.2,-0.29 -0.37,-0.74 -0.5,-1.13 -0.05,-0.15 -0.1,-0.28 -0.13,-0.39 0,-0.01 -0.04,-0.2 -0.09,-0.42 1.44,-0.21 2.75,-0.39 3.27,-0.44 0,0 3.02,-0.78 3.03,-0.78 1.53,-0.14 3.81,-1.27 4.33,-1.47 l 9.41,-0.98 c 0.78,0.46 1.74,1.34 1.13,2.62"
   id="path62" />
	<path
   class="st2"
   d="m 92.68,307.57 1.02,2.51 0.01,0.01 0.32,0.79 0.18,0.44 c 0.09,0.02 0.17,0.04 0.26,0.06 8.7,2.13 14.11,-2.41 14.11,-2.41 l 0.01,-1.76 0.02,-4.6 z"
   id="path64" />
	<path
   class="st5"
   d="m 77.74,296.6 c 0,0 -3.19,1.34 -4.53,-2.84 0,0 -3.08,0.78 -2.77,-4.05 0,0 -7.84,-9.3 2.99,-13.95 0,0 0.34,-4.43 5.03,-2.62 0,0 2.93,-12.68 7.29,-7.07 0,0 3.52,-7.98 6.99,-6.37 0,0 2.93,-4.07 6.08,-2.5 0,0 5.99,-6.05 12.17,-1.86 0,0 8.18,-5.48 5.67,4.75 0,0 10.05,-3.85 7.51,4 0,0 5.75,-0.6 -1.47,10.22 0,0 2.78,0.68 1.02,4.04 0,0 4.48,2.15 -1.67,8.18 0,0 2.19,1.18 -2.74,4.34 z"
   id="path66" />
	<path
   class="st2"
   d="m 80.5,293.98 c 0,0 -2.82,-1.59 -4.1,1.34 -1.29,2.92 4.54,8.48 6.12,8.27 1.58,-0.21 3.62,-1.85 3.62,-1.85 z"
   id="path68" />
	<path
   class="st2"
   d="m 116.38,286.52 c 0,0 2.22,-1.3 2.82,0.08 0.61,1.38 0.55,7.28 -2.7,8.69 -3.25,1.41 -0.12,-8.77 -0.12,-8.77"
   id="path70" />
	<path
   class="st6"
   d="m 80.34,293.51 c 1.67,4.99 2.13,8.53 5.5,10.75 3.37,2.22 9.97,5.72 15.77,4.29 5.8,-1.42 14.21,-8.82 14.81,-10.33 0.45,-1.13 1.39,-13.76 1.83,-20.1 0.13,-1.86 -1.15,-5.15 -3.18,-7.16 0,0 -5.35,-3.75 -15.65,-2.55 -10.31,1.21 -17.07,5.93 -17.07,5.93 -3.52,2.24 -4.39,6.97 -4.06,9.32 0.44,3.07 1.13,7.1 2.05,9.85"
   id="path72" />
	<path
   class="st7"
   d="m 91.58,288.96 c 0.27,0.52 0.06,1.17 -0.47,1.44 -0.53,0.27 -1.17,0.06 -1.44,-0.46 -0.27,-0.53 -0.06,-1.17 0.47,-1.44 0.53,-0.27 1.17,-0.06 1.44,0.46"
   id="path74" />
	<path
   class="st7"
   d="m 108.16,285.11 c 0.27,0.53 0.06,1.17 -0.47,1.44 -0.52,0.27 -1.17,0.06 -1.44,-0.46 -0.27,-0.53 -0.06,-1.17 0.47,-1.44 0.53,-0.27 1.17,-0.06 1.44,0.46"
   id="path76" />
	<path
   class="st8"
   d="m 90.37,298.34 c 0,0 6.73,-3.62 20.13,-3.95 0,0 -1.25,5.62 -7.25,7.49 -5.99,1.87 -12.88,-3.54 -12.88,-3.54"
   id="path78" />
	<path
   class="st4"
   d="m 100.55,302.71 c -5.25,0 -10.2,-3.83 -10.45,-4.03 l -0.52,-0.41 0.58,-0.31 c 0.28,-0.15 6.98,-3.67 20.33,-4 l 0.55,-0.01 -0.12,0.54 c -0.05,0.24 -1.37,5.89 -7.54,7.81 -0.93,0.28 -1.88,0.41 -2.83,0.41 m -9.33,-4.29 c 1.76,1.21 7.18,4.52 11.91,3.04 4.59,-1.43 6.3,-5.21 6.79,-6.62 -10.47,0.34 -16.76,2.72 -18.7,3.58"
   id="path80" />
	<path
   class="st5"
   d="m 85.98,287.17 c 0,0 2.84,-2.83 6.39,-4.3 0,0 0.26,-1.17 -0.77,-1.5 -1.03,-0.33 -7.7,3.09 -5.62,5.8"
   id="path82" />
	<path
   class="st5"
   d="m 111.03,281.24 c 0,0 -3.04,-1.06 -6.1,-0.82 0,0 -0.6,-0.78 0.01,-1.42 0.62,-0.65 6.6,-0.61 6.09,2.24"
   id="path84" />
	<path
   class="st5"
   d="m 81.16,285.61 c 3.43,4.23 -0.18,4.17 -0.18,4.17 1.71,3.6 -0.36,2.54 -0.36,2.54 0,0 1.14,2.23 -0.35,1.79 -1.49,-0.44 -2.91,-3.56 -2.91,-3.56 l -2.3,-11.24 c 0,0 5.73,-0.75 6.81,2.87 0.64,2.16 -0.71,3.43 -0.71,3.43"
   id="path86" />
	<path
   class="st6"
   d="m 93.68,308.06 c 0,0 3.34,1.6 6.78,0.91 5.6,-1.12 9.02,-4.44 9.02,-4.44"
   id="path88" />
	<path
   class="st4"
   d="m 93.68,308.06 c 1.39,0.36 2.78,0.62 4.16,0.66 0.34,0.01 0.69,0.02 1.03,-0.01 0.34,0 0.68,-0.05 1.02,-0.09 l 0.5,-0.09 0.51,-0.11 0.51,-0.11 0.5,-0.14 c 1.34,-0.38 2.66,-0.86 3.92,-1.48 1.27,-0.61 2.49,-1.32 3.65,-2.17 -0.96,1.07 -2.13,1.95 -3.36,2.7 -1.24,0.75 -2.58,1.34 -3.98,1.76 l -0.52,0.16 -0.53,0.13 -0.53,0.13 c -0.19,0.03 -0.37,0.06 -0.56,0.08 -0.37,0.04 -0.74,0.08 -1.11,0.07 -0.37,0.01 -0.74,-0.03 -1.11,-0.07 -0.73,-0.08 -1.45,-0.25 -2.14,-0.49 -0.69,-0.24 -1.36,-0.53 -1.96,-0.93"
   id="path90" />
	<path
   class="st5"
   d="m 118.8,269.21 c 0,0 3.29,2.64 -1.37,5.02 -4.65,2.38 -8.31,-0.41 -8.31,-0.41 0.54,2.6 -3.11,1.1 -3.11,1.1 1.09,2.33 -2.5,1.28 -2.5,1.28 0.03,5.05 -10.38,-0.25 -10.38,-0.25 1.17,2.68 -1.36,2.19 -1.36,2.19 1.21,1.96 -3.29,2.58 -3.29,2.58 -1.1,3.74 -5.52,2 -7.93,0.74 -2.41,-1.27 -3.15,-4.19 -3.15,-4.19 l -0.22,-1.09 12.08,-6.18 21.57,-7.97 z"
   id="path92" />
	<path
   class="st2"
   d="m 101.47,288.67 c 0.29,0.64 0.58,1.42 0.87,2.31 0,0 -3.24,2.05 -4.92,0.83 -1.68,-1.22 1.55,-2.38 1.55,-2.38 0,0 -1.44,-2.55 -0.06,-2.95 1.01,-0.29 1.8,0.5 2.56,2.19"
   id="path94" />
	<path
   class="st9"
   d="m 102.34,290.98 c -0.29,-0.9 -0.58,-1.67 -0.87,-2.31 0.65,-0.16 1.56,-0.24 2.01,0.41 0.75,1.06 -1.14,1.9 -1.14,1.9"
   id="path96" />
	<path
   class="st5"
   d="m 120.43,274.13 0.4,8.79 -3.18,2.76 c -2.16,-1.71 -0.6,-3.37 -0.6,-3.37 -2.39,-3.04 -0.39,-3.02 -0.39,-3.02 -1.71,-0.47 -2.54,-0.88 -3.1,-3.24 -0.64,-2.74 3.78,-4.51 3.78,-4.51 z"
   id="path98" />
	<path
   class="st10"
   d="m 115.32,290.57 c -0.04,0.24 0.13,0.47 0.38,0.51 0.24,0.04 0.47,-0.13 0.51,-0.38 0.04,-0.24 -0.13,-0.47 -0.38,-0.51 -0.25,-0.03 -0.47,0.14 -0.51,0.38"
   id="path100" />
	<path
   class="st10"
   d="m 113.22,289.54 c -0.04,0.24 0.13,0.47 0.38,0.51 0.24,0.04 0.47,-0.13 0.51,-0.38 0.04,-0.24 -0.13,-0.47 -0.38,-0.51 -0.24,-0.03 -0.47,0.14 -0.51,0.38"
   id="path102" />
	<path
   class="st10"
   d="m 112.52,291.49 c -0.04,0.24 0.13,0.47 0.38,0.51 0.24,0.04 0.47,-0.13 0.51,-0.38 0.04,-0.24 -0.13,-0.47 -0.38,-0.51 -0.24,-0.04 -0.47,0.13 -0.51,0.38"
   id="path104" />
	<path
   class="st10"
   d="m 111.19,289.87 c -0.02,0.17 0.09,0.33 0.26,0.35 0.17,0.03 0.33,-0.09 0.35,-0.26 0.02,-0.17 -0.09,-0.33 -0.26,-0.35 -0.17,-0.02 -0.33,0.09 -0.35,0.26"
   id="path106" />
	<path
   class="st10"
   d="m 111.76,288.15 c -0.02,0.17 0.09,0.33 0.26,0.35 0.17,0.02 0.33,-0.09 0.35,-0.26 0.03,-0.17 -0.09,-0.33 -0.26,-0.35 -0.17,-0.02 -0.33,0.1 -0.35,0.26"
   id="path108" />
	<path
   class="st10"
   d="m 114.49,291.94 c -0.02,0.17 0.09,0.33 0.26,0.35 0.17,0.02 0.33,-0.09 0.35,-0.26 0.03,-0.17 -0.09,-0.33 -0.26,-0.35 -0.16,-0.03 -0.32,0.09 -0.35,0.26"
   id="path110" />
	<path
   class="st10"
   d="m 109.15,290.11 c -0.02,0.17 0.09,0.33 0.26,0.35 0.17,0.03 0.33,-0.09 0.35,-0.26 0.02,-0.17 -0.09,-0.33 -0.26,-0.35 -0.17,-0.03 -0.33,0.09 -0.35,0.26"
   id="path112" />
	<path
   class="st10"
   d="m 114.88,287.93 c -0.05,0.35 0.19,0.67 0.53,0.72 0.35,0.05 0.67,-0.19 0.72,-0.53 0.05,-0.35 -0.19,-0.67 -0.53,-0.72 -0.34,-0.05 -0.67,0.19 -0.72,0.53"
   id="path114" />
	<path
   class="st10"
   d="m 109.96,291.59 c -0.05,0.35 0.19,0.67 0.53,0.72 0.35,0.05 0.67,-0.19 0.72,-0.53 0.05,-0.35 -0.19,-0.67 -0.53,-0.72 -0.34,-0.05 -0.67,0.18 -0.72,0.53"
   id="path116" />
	<path
   class="st10"
   d="m 85.41,296.89 c 0.18,0.17 0.18,0.45 0.01,0.63 -0.17,0.18 -0.45,0.18 -0.63,0.01 -0.18,-0.17 -0.18,-0.46 -0.01,-0.63 0.17,-0.18 0.45,-0.18 0.63,-0.01"
   id="path118" />
	<path
   class="st10"
   d="m 86.45,294.8 c 0.18,0.17 0.18,0.45 0.01,0.63 -0.17,0.18 -0.45,0.18 -0.63,0.01 -0.18,-0.17 -0.18,-0.46 -0.01,-0.63 0.17,-0.18 0.45,-0.18 0.63,-0.01"
   id="path120" />
	<path
   class="st10"
   d="m 88.19,295.92 c 0.18,0.17 0.18,0.45 0.01,0.63 -0.17,0.18 -0.45,0.18 -0.63,0.01 -0.18,-0.17 -0.18,-0.45 -0.01,-0.63 0.17,-0.18 0.45,-0.18 0.63,-0.01"
   id="path122" />
	<path
   class="st10"
   d="m 88.27,293.83 c 0.12,0.12 0.13,0.31 0.01,0.44 -0.12,0.12 -0.31,0.13 -0.44,0 -0.12,-0.12 -0.13,-0.31 -0.01,-0.44 0.12,-0.12 0.32,-0.12 0.44,0"
   id="path124" />
	<path
   class="st10"
   d="m 86.78,292.81 c 0.12,0.12 0.13,0.31 0.01,0.44 -0.12,0.12 -0.31,0.13 -0.44,0 -0.12,-0.12 -0.13,-0.31 -0.01,-0.44 0.12,-0.12 0.32,-0.12 0.44,0"
   id="path126" />
	<path
   class="st10"
   d="m 86.89,297.47 c 0.12,0.12 0.12,0.31 0.01,0.44 -0.12,0.12 -0.32,0.13 -0.44,0 -0.12,-0.12 -0.13,-0.31 0,-0.44 0.11,-0.11 0.31,-0.12 0.43,0"
   id="path128" />
	<path
   class="st10"
   d="m 90.03,292.78 c 0.12,0.12 0.13,0.31 0.01,0.44 -0.12,0.12 -0.31,0.13 -0.44,0 -0.12,-0.12 -0.13,-0.31 -0.01,-0.44 0.13,-0.12 0.32,-0.12 0.44,0"
   id="path130" />
	<path
   class="st10"
   d="m 84.16,294.52 c 0.25,0.24 0.26,0.65 0.01,0.9 -0.24,0.25 -0.65,0.26 -0.9,0.01 -0.25,-0.25 -0.26,-0.65 -0.01,-0.9 0.24,-0.25 0.65,-0.25 0.9,-0.01"
   id="path132" />
	<path
   class="st10"
   d="m 90.29,294.45 c 0.25,0.24 0.26,0.65 0.01,0.9 -0.24,0.25 -0.65,0.26 -0.9,0.01 -0.25,-0.24 -0.26,-0.65 -0.01,-0.9 0.24,-0.25 0.65,-0.25 0.9,-0.01"
   id="path134" />
	<path
   class="st2"
   d="m 169.26,302.96 -0.1,-1.84 c 0,0 13.17,-2.12 15.18,-1.07 2.02,1.04 1.57,3.87 1.19,4.36 -0.37,0.49 -14.55,2.43 -14.55,2.43 z"
   id="path136" />
	<path
   class="st2"
   d="m 95.5,345.72 0.16,-1.65 c 0,0 13.3,0.14 15.15,1.38 1.84,1.24 1.01,3.69 0.57,4.07 -0.44,0.38 -14.71,-0.08 -14.71,-0.08 z"
   id="path138" />
	<path
   class="st2"
   d="m 93.29,344.14 0.16,-1.65 c 0,0 13.3,0.14 15.15,1.39 1.84,1.24 1.01,3.69 0.57,4.07 -0.44,0.38 -14.71,-0.08 -14.71,-0.08 z"
   id="path140" />
	<path
   class="st2"
   d="m 91.2,343.35 0.16,-1.65 c 0,0 13.3,0.14 15.15,1.38 1.84,1.24 1.01,3.69 0.57,4.07 -0.44,0.38 -14.71,-0.08 -14.71,-0.08 z"
   id="path142" />
	<path
   class="st2"
   d="m 170.86,312.84 0.32,1.81 c 0,0 13.31,-0.89 15.03,-2.36 1.73,-1.47 0.66,-4.12 0.18,-4.51 -0.47,-0.4 -14.72,0.9 -14.72,0.9 z"
   id="path144" />
	<path
   class="st2"
   d="m 170.52,317.01 0.32,1.81 c 0,0 10.36,-0.45 12.09,-1.92 1.73,-1.47 0.64,-3.55 0.16,-3.95 -0.47,-0.39 -11.78,0.46 -11.78,0.46 z"
   id="path146" />
	<path
   class="st2"
   d="m 171.24,306.5 -0.1,-1.84 c 0,0 13.17,-2.12 15.18,-1.07 2.01,1.04 1.64,4.1 0.4,4.62 -1.75,0.72 -13.76,2.17 -13.76,2.17 z"
   id="path148" />
	<path
   class="st4"
   d="m 165.57,311.17 c 0.4,-1.25 0.74,-2.51 0.98,-3.78 0.11,-0.64 0.21,-1.28 0.24,-1.91 0.03,-0.64 0.01,-1.27 -0.13,-1.86 l -0.07,-0.29 0.35,-0.08 c 0.04,-0.01 0.16,-0.04 0.25,-0.07 0.09,-0.03 0.19,-0.06 0.29,-0.1 0.19,-0.08 0.38,-0.17 0.58,-0.26 0.19,-0.09 0.39,-0.18 0.58,-0.29 0.19,-0.1 0.39,-0.19 0.58,-0.3 0.76,-0.41 1.49,-0.88 2.19,-1.44 -0.22,0.4 -0.52,0.75 -0.83,1.07 -0.32,0.32 -0.68,0.61 -1.05,0.87 -0.37,0.26 -0.76,0.49 -1.17,0.69 -0.2,0.1 -0.42,0.19 -0.64,0.27 -0.11,0.04 -0.22,0.08 -0.34,0.11 -0.13,0.03 -0.22,0.05 -0.4,0.06 l 0.28,-0.37 c 0.14,0.69 0.13,1.37 0.06,2.04 -0.07,0.67 -0.2,1.32 -0.37,1.96 -0.33,1.27 -0.8,2.5 -1.38,3.68"
   id="path150" />
	<path
   class="st4"
   d="m 172.56,304.12 c 0.47,1.16 0.78,2.38 1,3.61 0.22,1.24 0.32,2.49 0.32,3.75 0.01,1.26 -0.14,2.52 -0.39,3.75 -0.25,1.23 -0.71,2.42 -1.29,3.52 0.32,-1.21 0.62,-2.4 0.77,-3.62 0.06,-0.3 0.06,-0.61 0.1,-0.91 0.03,-0.3 0.07,-0.61 0.07,-0.91 l 0.05,-0.92 0.01,-0.92 c 0.01,-1.22 -0.06,-2.45 -0.17,-3.67 -0.12,-1.22 -0.27,-2.45 -0.47,-3.68"
   id="path152" />
	<path
   class="st4"
   d="m 165.57,312.85 c 0.7,-0.31 1.49,-0.43 2.27,-0.38 0.79,0.05 1.58,0.31 2.25,0.76 0.65,0.47 1.22,1.08 1.54,1.8 0.04,0.09 0.1,0.17 0.13,0.26 l 0.09,0.28 0.18,0.55 c 0.08,0.38 0.13,0.76 0.16,1.14 -0.18,-0.34 -0.31,-0.69 -0.48,-1.02 l -0.27,-0.48 -0.13,-0.24 c -0.04,-0.08 -0.1,-0.15 -0.15,-0.22 -0.11,-0.15 -0.21,-0.29 -0.31,-0.44 -0.11,-0.13 -0.24,-0.26 -0.36,-0.39 -0.06,-0.06 -0.11,-0.14 -0.18,-0.19 l -0.2,-0.17 c -0.13,-0.11 -0.26,-0.23 -0.42,-0.32 -0.57,-0.4 -1.23,-0.65 -1.93,-0.8 -0.69,-0.13 -1.43,-0.18 -2.19,-0.14"
   id="path154" />
	<path
   class="st4"
   d="m 182.95,303.43 c -0.87,0.06 -1.73,0.13 -2.59,0.21 -0.86,0.08 -1.71,0.16 -2.56,0.26 -0.43,0.05 -0.86,0.09 -1.28,0.14 l -1.28,0.15 c -0.86,0.1 -1.71,0.2 -2.59,0.26 0.81,-0.33 1.65,-0.58 2.5,-0.78 0.85,-0.21 1.71,-0.34 2.58,-0.44 0.87,-0.09 1.75,-0.14 2.62,-0.11 0.87,0.01 1.75,0.08 2.6,0.31"
   id="path156" />
	<path
   class="st4"
   d="m 183.46,308.18 c -0.87,0.06 -1.73,0.13 -2.59,0.21 -0.86,0.08 -1.71,0.16 -2.56,0.26 -0.43,0.05 -0.85,0.09 -1.28,0.14 l -1.28,0.15 c -0.86,0.1 -1.71,0.2 -2.59,0.26 0.81,-0.33 1.65,-0.58 2.5,-0.78 0.85,-0.21 1.71,-0.34 2.58,-0.44 0.87,-0.08 1.75,-0.14 2.62,-0.11 0.87,0.01 1.75,0.08 2.6,0.31"
   id="path158" />
	<path
   class="st4"
   d="m 173.09,313.92 c 0.21,-0.07 0.42,-0.15 0.64,-0.2 0.37,-0.12 0.75,-0.22 1.13,-0.31 0.85,-0.2 1.71,-0.34 2.57,-0.44 0.88,-0.09 1.75,-0.15 2.63,-0.12 0.87,0.03 1.75,0.1 2.6,0.33 -0.88,0.05 -1.73,0.13 -2.59,0.2 -0.85,0.08 -1.71,0.16 -2.55,0.26 -0.43,0.05 -0.86,0.08 -1.29,0.15 l -1.28,0.15 c -0.42,0.04 -0.85,0.09 -1.27,0.14 -0.2,0.03 -0.41,0.05 -0.61,0.07 z"
   id="path160" />
	<path
   class="st2"
   d="m 94.18,345.92 0.34,-1.81 c 0,0 13.29,1.08 15,2.58 1.71,1.5 0.6,4.13 0.12,4.52 -0.48,0.39 -14.71,-1.11 -14.71,-1.11 z"
   id="path162" />
	<path
   class="st4"
   d="m 108.41,344.94 c -1.42,-0.07 -2.14,-0.36 -4.46,-0.52 -1.44,-0.1 -2.86,-0.04 -3.89,-0.02 0.01,-0.07 0,-0.15 -0.01,-0.22 1.31,-0.15 3.09,-0.28 3.57,-0.24 0.71,0.06 2.09,0.14 2.78,0.32 0.68,0.17 1.36,0.38 2.01,0.68"
   id="path164" />
	<path
   class="st4"
   d="m 106.5,343.39 c -1.42,-0.07 -2.19,-0.38 -3.72,-0.32 -0.76,0.03 -1.9,0.08 -2.97,0.13 -0.04,-0.1 -0.07,-0.19 -0.12,-0.27 0.9,-0.07 1.8,-0.13 2.36,-0.16 1.28,-0.07 3.8,0.31 4.45,0.62"
   id="path166" />
	<path
   class="st4"
   d="m 109.19,347.03 c -1.42,-0.08 -2.14,-0.36 -4.46,-0.52 -2.32,-0.16 -4.27,0.02 -4.98,-0.09 0.17,-0.04 -0.16,-0.23 0.23,-0.28 1.23,-0.15 3.88,-0.17 4.42,-0.11 0.71,0.07 2.09,0.15 2.78,0.32 0.68,0.16 1.36,0.37 2.01,0.68"
   id="path168" />
	<path
   class="st4"
   d="m 99.75,346.42 c -0.01,-0.35 0.01,-0.69 0.04,-1.03 0.02,-0.33 0.06,-0.7 0.04,-0.97 v -0.02 -0.02 c 0.01,-0.06 -0.02,-0.21 -0.04,-0.32 -0.02,-0.12 -0.04,-0.24 -0.06,-0.36 -0.04,-0.24 -0.1,-0.48 -0.16,-0.71 l -0.01,-0.01 c -0.04,-0.16 -0.08,-0.32 -0.14,-0.48 0.15,0.09 0.27,0.23 0.37,0.38 v -0.01 c 0.15,0.23 0.29,0.47 0.36,0.73 0.04,0.13 0.07,0.26 0.09,0.39 0.01,0.14 0.04,0.24 0.02,0.44 v -0.04 c -0.01,0.41 -0.1,0.71 -0.19,1.05 -0.08,0.33 -0.2,0.65 -0.32,0.98"
   id="path170" />
	<path
   class="st2"
   d="m 88.13,343.92 0.61,1.73 c 0,0 10.25,-1.41 11.3,-2.95 1.05,-1.54 0.63,-3.55 0.19,-3.91 -0.64,-0.51 -3.51,0.05 -6.31,0.17 -2.8,0.12 -5.02,-0.11 -5.98,0.86 -1.93,1.94 0.19,4.1 0.19,4.1"
   id="path172" />
	<path
   class="st4"
   d="m 100.36,342.12 c -0.13,0.52 -0.45,1.01 -0.89,1.36 -0.44,0.36 -0.99,0.54 -1.51,0.68 -1.06,0.25 -2.13,0.32 -3.19,0.37 l 0.1,-0.06 c -0.58,0.61 -1.26,1.13 -2.05,1.41 0.71,-0.42 1.3,-1 1.81,-1.62 l 0.04,-0.04 0.07,-0.01 c 1.05,-0.2 2.11,-0.28 3.13,-0.49 0.5,-0.11 1.01,-0.23 1.44,-0.49 0.42,-0.26 0.8,-0.64 1.05,-1.11"
   id="path174" />
</g>
<rect
   class="st11"
   width="841.89001"
   height="595.28003"
   id="rect178"
   x="-58.529999"
   y="-253.86201" />
</svg>
