
<svg version="1.1" id="Camada_1" xmlns="http://www.w3.org/2000/svg"  viewBox="0 0 841.89 595.28" >
<style type="text/css">
	.st0{fill:#312783;}
	.st1{fill:#DBBD00;}
	.st2{fill:#FAC39D;}
	.st3{fill:#FFED00;}
	.st4{fill:#C2A782;}
	.st5{fill:#C90C0F;}
	.st6{fill:#FDD5A5;}
	.st7{fill:#00702A;}
	.st8{fill:#F6F6F6;}
	.st9{fill:#E7B593;}
	.st10{fill:#F7B49D;}
	.st11{fill:none;}
</style>
<g>
	<path class="st0" d="M170.74,331.13h10.62l21.16,55.01h-10.88l-4.3-11.33h-22.45l-4.48,11.33h-10.88L170.74,331.13z M176.12,345.72
		l-7.38,18.88h14.72L176.12,345.72z"/>
	<polygon class="st0" points="210.62,331.13 221.09,331.13 221.09,376.16 236.34,376.16 236.34,386.14 210.62,386.14 	"/>
	<path class="st0" d="M243.93,331.13h10.51v35.57c0,3.06,0.27,5.23,0.81,6.5c0.53,1.27,1.42,2.29,2.65,3.05
		c1.23,0.76,2.72,1.14,4.47,1.14c1.84,0,3.43-0.42,4.77-1.27c1.33-0.85,2.26-1.92,2.77-3.23c0.51-1.31,0.77-3.8,0.77-7.49v-34.26
		h10.51v32.79c0,5.53-0.31,9.37-0.93,11.52c-0.62,2.14-1.81,4.21-3.57,6.21c-1.76,2-3.78,3.47-6.08,4.43
		c-2.29,0.96-4.96,1.44-8,1.44c-3.99,0-7.46-0.92-10.41-2.75c-2.95-1.83-5.07-4.13-6.34-6.88c-1.27-2.75-1.91-7.41-1.91-13.97
		V331.13z"/>
	<path class="st0" d="M344.11,340.11l-7.37,7.29c-4.67-4.94-10.11-7.4-16.32-7.4c-5.42,0-9.95,1.79-13.61,5.38
		c-3.66,3.59-5.48,7.95-5.48,13.09c0,5.31,1.9,9.81,5.69,13.5c3.79,3.69,8.47,5.54,14.04,5.54c3.62,0,6.67-0.76,9.15-2.28
		c2.48-1.52,4.48-3.9,6.01-7.14h-15.93v-9.83h27.67l0.07,2.32c0,4.81-1.25,9.38-3.74,13.69c-2.49,4.31-5.72,7.6-9.69,9.87
		c-3.96,2.27-8.61,3.4-13.95,3.4c-5.71,0-10.8-1.24-15.28-3.72c-4.47-2.48-8.02-6.01-10.62-10.6c-2.6-4.59-3.91-9.54-3.91-14.85
		c0-7.28,2.4-13.61,7.22-19c5.71-6.41,13.14-9.61,22.29-9.61c4.79,0,9.26,0.88,13.42,2.65C337.31,333.9,340.75,336.47,344.11,340.11
		"/>
	<path class="st0" d="M357.28,331.13h10.51v35.57c0,3.06,0.27,5.23,0.81,6.5c0.53,1.27,1.42,2.29,2.65,3.05
		c1.23,0.76,2.72,1.14,4.47,1.14c1.84,0,3.43-0.42,4.77-1.27c1.33-0.85,2.26-1.92,2.77-3.23c0.51-1.31,0.76-3.8,0.76-7.49v-34.26
		h10.51v32.79c0,5.53-0.31,9.37-0.93,11.52c-0.62,2.14-1.81,4.21-3.57,6.21c-1.76,2-3.78,3.47-6.08,4.43
		c-2.29,0.96-4.96,1.44-8,1.44c-3.99,0-7.46-0.92-10.41-2.75c-2.95-1.83-5.07-4.13-6.34-6.88c-1.27-2.75-1.91-7.41-1.91-13.97
		V331.13z"/>
	<polygon class="st0" points="406.71,331.13 436.74,331.13 436.74,341.38 417.11,341.38 417.11,351.33 436.74,351.33 436.74,361.39 
		417.11,361.39 417.11,375.86 436.74,375.86 436.74,386.14 406.71,386.14 	"/>
	<path class="st0" d="M450.1,336.51v48.64c0,0.54-0.38,1-0.92,1c-0.46,0-1-0.46-1-1v-51.24v-0.23c0-0.31,0.15-0.61,0.38-0.84
		c0.54-0.31,1.07-0.23,1.38,0.15l35.38,49.17v-48.25c0-0.54,0.54-1,1-1c0.54,0,0.92,0.46,0.92,1v51.24c0,0.54-0.38,1-0.92,1
		c-0.38,0-0.77-0.23-0.92-0.61c-0.08,0-0.08,0-0.08-0.08L450.1,336.51z"/>
	<path class="st0" d="M537.33,371.59h-26.81l-5.13,13.71c-0.08,0.38-0.46,0.69-0.84,0.69c-0.08,0-0.23-0.08-0.38-0.08
		c-0.46-0.23-0.69-0.76-0.46-1.3l19.3-51.47c0.15-0.46,0.54-0.69,1-0.61c0.38,0,0.76,0.23,1,0.61l19.3,51.47
		c0.23,0.54-0.08,1.07-0.54,1.3c-0.15,0-0.23,0.08-0.31,0.08c-0.38,0-0.77-0.31-1-0.69L537.33,371.59z M511.29,369.6h25.27
		l-12.64-33.55L511.29,369.6z"/>
	<polygon class="st0" points="554.98,331.13 565.6,331.13 565.6,351.89 583.96,351.89 583.96,331.13 594.54,331.13 594.54,386.14 
		583.96,386.14 583.96,362.02 565.6,362.02 565.6,386.14 554.98,386.14 	"/>
	<path class="st0" d="M633.08,329.75c7.78,0,14.48,2.82,20.08,8.45c5.6,5.63,8.4,12.5,8.4,20.6c0,8.03-2.76,14.82-8.29,20.38
		c-5.53,5.56-12.23,8.34-20.11,8.34c-8.26,0-15.12-2.85-20.58-8.56c-5.46-5.71-8.19-12.49-8.19-20.34c0-5.26,1.27-10.1,3.82-14.51
		c2.54-4.41,6.04-7.91,10.5-10.49C623.14,331.04,627.94,329.75,633.08,329.75 M632.97,340c-5.09,0-9.37,1.77-12.84,5.31
		c-3.47,3.54-5.2,8.04-5.2,13.5c0,6.08,2.18,10.9,6.55,14.43c3.39,2.77,7.29,4.15,11.68,4.15c4.97,0,9.2-1.79,12.69-5.38
		c3.49-3.59,5.24-8.01,5.24-13.28c0-5.23-1.76-9.67-5.28-13.29C642.29,341.81,638.01,340,632.97,340"/>
	<path class="st0" d="M672.14,331.13h11.09c6.08,0,10.4,0.54,12.98,1.63c2.58,1.08,4.65,2.88,6.22,5.4c1.57,2.52,2.35,5.5,2.35,8.94
		c0,3.61-0.87,6.64-2.6,9.07c-1.73,2.43-4.34,4.27-7.83,5.52l13.03,24.46h-11.44l-12.37-23.3h-0.96v23.3h-10.47V331.13z
		 M682.61,352.64h3.28c3.33,0,5.62-0.44,6.88-1.31c1.25-0.88,1.88-2.33,1.88-4.35c0-1.2-0.31-2.24-0.93-3.13
		c-0.62-0.89-1.45-1.53-2.5-1.91c-1.04-0.39-2.96-0.58-5.74-0.58h-2.87V352.64z"/>
	<path class="st0" d="M732.63,331.13h10.62l21.16,55.01h-10.88l-4.3-11.33h-22.45l-4.47,11.33h-10.88L732.63,331.13z M738.01,345.72
		l-7.38,18.88h14.72L738.01,345.72z"/>
	<path class="st0" d="M776.92,374.4c1.77,0,3.28,0.62,4.54,1.87c1.26,1.25,1.89,2.76,1.89,4.53c0,1.75-0.63,3.25-1.89,4.51
		c-1.26,1.26-2.77,1.89-4.54,1.89c-1.77,0-3.28-0.62-4.52-1.87c-1.25-1.25-1.87-2.75-1.87-4.53c0-1.77,0.62-3.28,1.87-4.53
		C773.64,375.02,775.14,374.4,776.92,374.4 M771.76,329.75h10.32v40.2h-10.32V329.75z"/>
	<path class="st1" d="M131.45,320.35c0,0-1.37,4.97-1.92,5.06c-0.54,0.09-2.26-3.79-2.26-3.79L131.45,320.35z"/>
	<path class="st2" d="M170.52,295.1c0.67,0.42,1.56,1.34,1.86,2.7c0.49,2.17-0.79,3.01-2.37,4.29c1,0.63,4.03,2.66,4.59,5.6
		c0.86,4.47-1.75,10.47-2.4,11.06c-1.61,1.42-9.72,1.02-11.14,1.08c0,0-17.49,1.8-29.27,3.31c-11.79,1.51-13.32-1.68-13.32-1.68
		c-0.66-1.48,0.39-5.15,1.6-8.13c1.2-2.98,6.02-6.05,6.02-6.05c6.64-0.12,9.31,0.68,13.73,0.86c5.03-0.22,7.05,0.63,10.36,1.15
		c4.83,0.75,9.64,0.06,9.64,0.06s-0.11-3.91-0.24-4.73c-0.14-0.83-0.35-1.65,2.9-3.83C165.71,298.61,169.83,294.67,170.52,295.1"/>
	<path class="st3" d="M120.55,328.78c0,0,2.6-1.81,4.31-2.35c1.71-0.53,4.66-1.02,4.66-1.02s-1.29-6.92-1.14-12.22
		c0.15-5.31,1.14-5.91,1.14-5.91s-11.81-0.62-18.98-0.19L120.55,328.78z"/>
	<path class="st0" d="M127.03,350.52c0,0,1.8,8.21-0.9,22.59c0,0,17.46,8.09,17.46,11.78c0,3.68-13.58,0.72-31.39,0
		c0,0,1.73-19.45-5.75-19.45c-7.48,0-8.52,19.43-8.52,19.43s-7.11,1.09-14.83,0.92c-6.92-0.15-14.51-1.56-14.97-1.81
		c-0.97-0.54-3.6-1.27,0-3.56c3.6-2.29,12.82-5.68,12.82-5.68s0.35-6.04,1.87-13.23c1.52-7.19,3.26-10.99,3.26-10.99H127.03z"/>
	<path class="st3" d="M130.06,349.1c0,0-6.74,6.63-24.92,6.62c-18.18-0.01-22.35-2.52-22.35-2.52c0.21-1.01,1.15-3.61,1.24-4.84
		c0.26-3.48,0.27-7.2-0.32-10.49c-0.65-3.63-1.61-7.45-1.61-7.45l0.55-0.86l1.71-2.67l0.52-1.02l0.19-14.26
		c0.23-0.05,3.05-0.49,5.46-0.84c1.44-0.21,2.75-0.39,3.27-0.44c0,0,3.02-0.78,3.03-0.78c1.53-0.14,3.81-1.27,4.33-1.47
		c0.04-0.02,0.07-0.03,0.09-0.03l9.31-0.95l0.07-0.02c6.32-0.27,10.23,0.73,10.23,0.73l0.04,0.05l3.48,16.49L130.06,349.1z"/>
	<path class="st0" d="M109.42,322.1c-0.58-3.34,1.75-6.27,5.2-6.53c3.45-0.26,6.71,2.24,7.29,5.58c0.58,3.34-1.75,6.27-5.2,6.53
		C113.26,327.94,109.99,325.44,109.42,322.1"/>
	<path class="st3" d="M118.35,317.46c0,0,0.89,2.84,1.64,6.37l-6.62,1.59l-2.13-6.09l2.93,1.12l0.32-3.17l2.78,2.71L118.35,317.46z"
		/>
	<path class="st1" d="M65.07,324.06c0,0,1.54,2.43,2.63,2.43c1.08,0,4.52-3.36,4.52-3.36L65.07,324.06z"/>
	<path class="st2" d="M68.56,322.85c0,0,6.46-3.49,9.67-2.72c3.2,0.78,6.83,2.12,7.5,3.66c0.67,1.54-7.39,15.18-15.14,17.43
		c-7.75,2.25-11.89-2.25-11.89-2.25S58.32,332.55,68.56,322.85"/>
	<path class="st3" d="M65.07,324.06c0,0,11.21-1.47,18.98,6.88l10.72-12.85l0.41-1.38l0.13-0.43l0.86-2.87l0.16-0.53
		c0,0-0.12-0.04-0.33-0.11c-0.37-0.12-1.02-0.33-1.84-0.53c-0.47-0.12-0.98-0.24-1.53-0.34c-0.84-0.16-0.99-0.29-2.01-0.32
		c-4.54-0.13-6.42-0.02-10.48,0.67C75.38,313.07,68.06,317.97,65.07,324.06"/>
	<path class="st2" d="M86.13,340.76c4.44-0.46,14.09,2.19,14.5,2.6c1.59,1.59-1.63,8.13-5.71,6.74c-2.23-0.76-13.75-0.03-15.31-0.61
		c-1.55-0.58-16.55-3.08-21.08-8.62c0,0,0.11-6.46,3.36-9.35c3.25-2.9,10.31,1.34,13.82,3.92
		C80.28,338.79,81.69,341.21,86.13,340.76"/>
	<path class="st4" d="M75.72,335.44c-0.9-0.62-1.8-1.2-2.72-1.74c-0.92-0.53-1.86-1.02-2.83-1.43c-0.96-0.44-1.96-0.77-2.97-1.06
		l-0.77-0.2l-0.78-0.16c-0.13-0.03-0.26-0.06-0.39-0.08l-0.4-0.05c-0.27-0.04-0.54-0.08-0.81-0.13c0.27-0.04,0.54-0.08,0.81-0.11
		c0.14-0.02,0.27-0.03,0.41-0.04c0.14,0,0.27,0,0.41,0l0.83,0.02c0.27,0.03,0.55,0.07,0.82,0.1c0.14,0.02,0.27,0.03,0.41,0.06
		l0.4,0.09c0.27,0.07,0.54,0.12,0.81,0.2c0.53,0.17,1.05,0.35,1.56,0.57c1.01,0.45,1.98,1,2.85,1.67
		C74.25,333.8,75.07,334.55,75.72,335.44"/>
	<path class="st0" d="M111.69,309.73c-0.88,1.85-8.95,5.1-15.82,4.68c-0.31-0.02-0.62-0.04-0.92-0.08
		c-0.16-0.02-0.32-0.04-0.49-0.06c-0.14-0.02-0.29-0.04-0.44-0.06c-0.76-0.13-1.38-0.37-1.88-0.68c-0.27-0.17-0.51-0.36-0.71-0.58
		c-0.04-0.04-0.08-0.08-0.12-0.13c-0.03-0.03-0.05-0.06-0.07-0.1c-0.2-0.29-0.37-0.74-0.5-1.13c-0.05-0.15-0.1-0.28-0.13-0.39
		c0-0.01-0.04-0.2-0.09-0.42c1.44-0.21,2.75-0.39,3.27-0.44c0,0,3.02-0.78,3.03-0.78c1.53-0.14,3.81-1.27,4.33-1.47l9.41-0.98
		C111.34,307.57,112.3,308.45,111.69,309.73"/>
	<path class="st2" d="M92.68,307.57l1.02,2.51l0.01,0.01l0.32,0.79l0.18,0.44c0.09,0.02,0.17,0.04,0.26,0.06
		c8.7,2.13,14.11-2.41,14.11-2.41l0.01-1.76l0.02-4.6L92.68,307.57z"/>
	<path class="st5" d="M77.74,296.6c0,0-3.19,1.34-4.53-2.84c0,0-3.08,0.78-2.77-4.05c0,0-7.84-9.3,2.99-13.95
		c0,0,0.34-4.43,5.03-2.62c0,0,2.93-12.68,7.29-7.07c0,0,3.52-7.98,6.99-6.37c0,0,2.93-4.07,6.08-2.5c0,0,5.99-6.05,12.17-1.86
		c0,0,8.18-5.48,5.67,4.75c0,0,10.05-3.85,7.51,4c0,0,5.75-0.6-1.47,10.22c0,0,2.78,0.68,1.02,4.04c0,0,4.48,2.15-1.67,8.18
		c0,0,2.19,1.18-2.74,4.34L77.74,296.6z"/>
	<path class="st2" d="M80.5,293.98c0,0-2.82-1.59-4.1,1.34c-1.29,2.92,4.54,8.48,6.12,8.27c1.58-0.21,3.62-1.85,3.62-1.85
		L80.5,293.98z"/>
	<path class="st2" d="M116.38,286.52c0,0,2.22-1.3,2.82,0.08c0.61,1.38,0.55,7.28-2.7,8.69
		C113.25,296.7,116.38,286.52,116.38,286.52"/>
	<path class="st6" d="M80.34,293.51c1.67,4.99,2.13,8.53,5.5,10.75c3.37,2.22,9.97,5.72,15.77,4.29c5.8-1.42,14.21-8.82,14.81-10.33
		c0.45-1.13,1.39-13.76,1.83-20.1c0.13-1.86-1.15-5.15-3.18-7.16c0,0-5.35-3.75-15.65-2.55c-10.31,1.21-17.07,5.93-17.07,5.93
		c-3.52,2.24-4.39,6.97-4.06,9.32C78.73,286.73,79.42,290.76,80.34,293.51"/>
	<path class="st7" d="M91.58,288.96c0.27,0.52,0.06,1.17-0.47,1.44c-0.53,0.27-1.17,0.06-1.44-0.46c-0.27-0.53-0.06-1.17,0.47-1.44
		C90.67,288.23,91.31,288.44,91.58,288.96"/>
	<path class="st7" d="M108.16,285.11c0.27,0.53,0.06,1.17-0.47,1.44c-0.52,0.27-1.17,0.06-1.44-0.46c-0.27-0.53-0.06-1.17,0.47-1.44
		C107.25,284.38,107.89,284.59,108.16,285.11"/>
	<path class="st8" d="M90.37,298.34c0,0,6.73-3.62,20.13-3.95c0,0-1.25,5.62-7.25,7.49C97.26,303.75,90.37,298.34,90.37,298.34"/>
	<path class="st4" d="M100.55,302.71c-5.25,0-10.2-3.83-10.45-4.03l-0.52-0.41l0.58-0.31c0.28-0.15,6.98-3.67,20.33-4l0.55-0.01
		l-0.12,0.54c-0.05,0.24-1.37,5.89-7.54,7.81C102.45,302.58,101.5,302.71,100.55,302.71 M91.22,298.42
		c1.76,1.21,7.18,4.52,11.91,3.04c4.59-1.43,6.3-5.21,6.79-6.62C99.45,295.18,93.16,297.56,91.22,298.42"/>
	<path class="st5" d="M85.98,287.17c0,0,2.84-2.83,6.39-4.3c0,0,0.26-1.17-0.77-1.5C90.57,281.04,83.9,284.46,85.98,287.17"/>
	<path class="st5" d="M111.03,281.24c0,0-3.04-1.06-6.1-0.82c0,0-0.6-0.78,0.01-1.42C105.56,278.35,111.54,278.39,111.03,281.24"/>
	<path class="st5" d="M81.16,285.61c3.43,4.23-0.18,4.17-0.18,4.17c1.71,3.6-0.36,2.54-0.36,2.54s1.14,2.23-0.35,1.79
		c-1.49-0.44-2.91-3.56-2.91-3.56l-2.3-11.24c0,0,5.73-0.75,6.81,2.87C82.51,284.34,81.16,285.61,81.16,285.61"/>
	<path class="st6" d="M93.68,308.06c0,0,3.34,1.6,6.78,0.91c5.6-1.12,9.02-4.44,9.02-4.44"/>
	<path class="st4" d="M93.68,308.06c1.39,0.36,2.78,0.62,4.16,0.66c0.34,0.01,0.69,0.02,1.03-0.01c0.34,0,0.68-0.05,1.02-0.09
		l0.5-0.09l0.51-0.11l0.51-0.11l0.5-0.14c1.34-0.38,2.66-0.86,3.92-1.48c1.27-0.61,2.49-1.32,3.65-2.17
		c-0.96,1.07-2.13,1.95-3.36,2.7c-1.24,0.75-2.58,1.34-3.98,1.76l-0.52,0.16l-0.53,0.13l-0.53,0.13c-0.19,0.03-0.37,0.06-0.56,0.08
		c-0.37,0.04-0.74,0.08-1.11,0.07c-0.37,0.01-0.74-0.03-1.11-0.07c-0.73-0.08-1.45-0.25-2.14-0.49
		C94.95,308.75,94.28,308.46,93.68,308.06"/>
	<path class="st5" d="M118.8,269.21c0,0,3.29,2.64-1.37,5.02c-4.65,2.38-8.31-0.41-8.31-0.41c0.54,2.6-3.11,1.1-3.11,1.1
		c1.09,2.33-2.5,1.28-2.5,1.28c0.03,5.05-10.38-0.25-10.38-0.25c1.17,2.68-1.36,2.19-1.36,2.19c1.21,1.96-3.29,2.58-3.29,2.58
		c-1.1,3.74-5.52,2-7.93,0.74c-2.41-1.27-3.15-4.19-3.15-4.19l-0.22-1.09L89.26,270l21.57-7.97L118.8,269.21z"/>
	<path class="st2" d="M101.47,288.67c0.29,0.64,0.58,1.42,0.87,2.31c0,0-3.24,2.05-4.92,0.83c-1.68-1.22,1.55-2.38,1.55-2.38
		s-1.44-2.55-0.06-2.95C99.92,286.19,100.71,286.98,101.47,288.67"/>
	<path class="st9" d="M102.34,290.98c-0.29-0.9-0.58-1.67-0.87-2.31c0.65-0.16,1.56-0.24,2.01,0.41
		C104.23,290.14,102.34,290.98,102.34,290.98"/>
	<path class="st5" d="M120.43,274.13l0.4,8.79l-3.18,2.76c-2.16-1.71-0.6-3.37-0.6-3.37c-2.39-3.04-0.39-3.02-0.39-3.02
		c-1.71-0.47-2.54-0.88-3.1-3.24c-0.64-2.74,3.78-4.51,3.78-4.51L120.43,274.13z"/>
	<path class="st10" d="M115.32,290.57c-0.04,0.24,0.13,0.47,0.38,0.51c0.24,0.04,0.47-0.13,0.51-0.38c0.04-0.24-0.13-0.47-0.38-0.51
		C115.58,290.16,115.36,290.33,115.32,290.57"/>
	<path class="st10" d="M113.22,289.54c-0.04,0.24,0.13,0.47,0.38,0.51c0.24,0.04,0.47-0.13,0.51-0.38c0.04-0.24-0.13-0.47-0.38-0.51
		C113.49,289.13,113.26,289.3,113.22,289.54"/>
	<path class="st10" d="M112.52,291.49c-0.04,0.24,0.13,0.47,0.38,0.51c0.24,0.04,0.47-0.13,0.51-0.38c0.04-0.24-0.13-0.47-0.38-0.51
		C112.79,291.07,112.56,291.24,112.52,291.49"/>
	<path class="st10" d="M111.19,289.87c-0.02,0.17,0.09,0.33,0.26,0.35c0.17,0.03,0.33-0.09,0.35-0.26c0.02-0.17-0.09-0.33-0.26-0.35
		C111.37,289.59,111.21,289.7,111.19,289.87"/>
	<path class="st10" d="M111.76,288.15c-0.02,0.17,0.09,0.33,0.26,0.35c0.17,0.02,0.33-0.09,0.35-0.26c0.03-0.17-0.09-0.33-0.26-0.35
		C111.94,287.87,111.78,287.99,111.76,288.15"/>
	<path class="st10" d="M114.49,291.94c-0.02,0.17,0.09,0.33,0.26,0.35c0.17,0.02,0.33-0.09,0.35-0.26c0.03-0.17-0.09-0.33-0.26-0.35
		C114.68,291.65,114.52,291.77,114.49,291.94"/>
	<path class="st10" d="M109.15,290.11c-0.02,0.17,0.09,0.33,0.26,0.35c0.17,0.03,0.33-0.09,0.35-0.26c0.02-0.17-0.09-0.33-0.26-0.35
		C109.33,289.82,109.17,289.94,109.15,290.11"/>
	<path class="st10" d="M114.88,287.93c-0.05,0.35,0.19,0.67,0.53,0.72c0.35,0.05,0.67-0.19,0.72-0.53c0.05-0.35-0.19-0.67-0.53-0.72
		C115.26,287.35,114.93,287.59,114.88,287.93"/>
	<path class="st10" d="M109.96,291.59c-0.05,0.35,0.19,0.67,0.53,0.72c0.35,0.05,0.67-0.19,0.72-0.53c0.05-0.35-0.19-0.67-0.53-0.72
		C110.34,291.01,110.01,291.24,109.96,291.59"/>
	<path class="st10" d="M85.41,296.89c0.18,0.17,0.18,0.45,0.01,0.63c-0.17,0.18-0.45,0.18-0.63,0.01c-0.18-0.17-0.18-0.46-0.01-0.63
		C84.95,296.72,85.23,296.72,85.41,296.89"/>
	<path class="st10" d="M86.45,294.8c0.18,0.17,0.18,0.45,0.01,0.63c-0.17,0.18-0.45,0.18-0.63,0.01c-0.18-0.17-0.18-0.46-0.01-0.63
		C85.99,294.63,86.27,294.63,86.45,294.8"/>
	<path class="st10" d="M88.19,295.92c0.18,0.17,0.18,0.45,0.01,0.63c-0.17,0.18-0.45,0.18-0.63,0.01c-0.18-0.17-0.18-0.45-0.01-0.63
		C87.73,295.75,88.01,295.75,88.19,295.92"/>
	<path class="st10" d="M88.27,293.83c0.12,0.12,0.13,0.31,0.01,0.44c-0.12,0.12-0.31,0.13-0.44,0c-0.12-0.12-0.13-0.31-0.01-0.44
		C87.95,293.71,88.15,293.71,88.27,293.83"/>
	<path class="st10" d="M86.78,292.81c0.12,0.12,0.13,0.31,0.01,0.44c-0.12,0.12-0.31,0.13-0.44,0c-0.12-0.12-0.13-0.31-0.01-0.44
		C86.46,292.69,86.66,292.69,86.78,292.81"/>
	<path class="st10" d="M86.89,297.47c0.12,0.12,0.12,0.31,0.01,0.44c-0.12,0.12-0.32,0.13-0.44,0c-0.12-0.12-0.13-0.31,0-0.44
		C86.57,297.36,86.77,297.35,86.89,297.47"/>
	<path class="st10" d="M90.03,292.78c0.12,0.12,0.13,0.31,0.01,0.44c-0.12,0.12-0.31,0.13-0.44,0c-0.12-0.12-0.13-0.31-0.01-0.44
		C89.72,292.66,89.91,292.66,90.03,292.78"/>
	<path class="st10" d="M84.16,294.52c0.25,0.24,0.26,0.65,0.01,0.9c-0.24,0.25-0.65,0.26-0.9,0.01c-0.25-0.25-0.26-0.65-0.01-0.9
		C83.5,294.28,83.91,294.28,84.16,294.52"/>
	<path class="st10" d="M90.29,294.45c0.25,0.24,0.26,0.65,0.01,0.9c-0.24,0.25-0.65,0.26-0.9,0.01c-0.25-0.24-0.26-0.65-0.01-0.9
		C89.63,294.21,90.04,294.21,90.29,294.45"/>
	<path class="st2" d="M169.26,302.96l-0.1-1.84c0,0,13.17-2.12,15.18-1.07c2.02,1.04,1.57,3.87,1.19,4.36
		c-0.37,0.49-14.55,2.43-14.55,2.43L169.26,302.96z"/>
	<path class="st2" d="M95.5,345.72l0.16-1.65c0,0,13.3,0.14,15.15,1.38c1.84,1.24,1.01,3.69,0.57,4.07
		c-0.44,0.38-14.71-0.08-14.71-0.08L95.5,345.72z"/>
	<path class="st2" d="M93.29,344.14l0.16-1.65c0,0,13.3,0.14,15.15,1.39c1.84,1.24,1.01,3.69,0.57,4.07
		c-0.44,0.38-14.71-0.08-14.71-0.08L93.29,344.14z"/>
	<path class="st2" d="M91.2,343.35l0.16-1.65c0,0,13.3,0.14,15.15,1.38c1.84,1.24,1.01,3.69,0.57,4.07
		c-0.44,0.38-14.71-0.08-14.71-0.08L91.2,343.35z"/>
	<path class="st2" d="M170.86,312.84l0.32,1.81c0,0,13.31-0.89,15.03-2.36c1.73-1.47,0.66-4.12,0.18-4.51
		c-0.47-0.4-14.72,0.9-14.72,0.9L170.86,312.84z"/>
	<path class="st2" d="M170.52,317.01l0.32,1.81c0,0,10.36-0.45,12.09-1.92c1.73-1.47,0.64-3.55,0.16-3.95
		c-0.47-0.39-11.78,0.46-11.78,0.46L170.52,317.01z"/>
	<path class="st2" d="M171.24,306.5l-0.1-1.84c0,0,13.17-2.12,15.18-1.07c2.01,1.04,1.64,4.1,0.4,4.62
		c-1.75,0.72-13.76,2.17-13.76,2.17L171.24,306.5z"/>
	<path class="st4" d="M165.57,311.17c0.4-1.25,0.74-2.51,0.98-3.78c0.11-0.64,0.21-1.28,0.24-1.91c0.03-0.64,0.01-1.27-0.13-1.86
		l-0.07-0.29l0.35-0.08c0.04-0.01,0.16-0.04,0.25-0.07c0.09-0.03,0.19-0.06,0.29-0.1c0.19-0.08,0.38-0.17,0.58-0.26
		c0.19-0.09,0.39-0.18,0.58-0.29c0.19-0.1,0.39-0.19,0.58-0.3c0.76-0.41,1.49-0.88,2.19-1.44c-0.22,0.4-0.52,0.75-0.83,1.07
		c-0.32,0.32-0.68,0.61-1.05,0.87c-0.37,0.26-0.76,0.49-1.17,0.69c-0.2,0.1-0.42,0.19-0.64,0.27c-0.11,0.04-0.22,0.08-0.34,0.11
		c-0.13,0.03-0.22,0.05-0.4,0.06l0.28-0.37c0.14,0.69,0.13,1.37,0.06,2.04c-0.07,0.67-0.2,1.32-0.37,1.96
		C166.62,308.76,166.15,309.99,165.57,311.17"/>
	<path class="st4" d="M172.56,304.12c0.47,1.16,0.78,2.38,1,3.61c0.22,1.24,0.32,2.49,0.32,3.75c0.01,1.26-0.14,2.52-0.39,3.75
		c-0.25,1.23-0.71,2.42-1.29,3.52c0.32-1.21,0.62-2.4,0.77-3.62c0.06-0.3,0.06-0.61,0.1-0.91c0.03-0.3,0.07-0.61,0.07-0.91
		l0.05-0.92l0.01-0.92c0.01-1.22-0.06-2.45-0.17-3.67C172.91,306.58,172.76,305.35,172.56,304.12"/>
	<path class="st4" d="M165.57,312.85c0.7-0.31,1.49-0.43,2.27-0.38c0.79,0.05,1.58,0.31,2.25,0.76c0.65,0.47,1.22,1.08,1.54,1.8
		c0.04,0.09,0.1,0.17,0.13,0.26l0.09,0.28l0.18,0.55c0.08,0.38,0.13,0.76,0.16,1.14c-0.18-0.34-0.31-0.69-0.48-1.02l-0.27-0.48
		l-0.13-0.24c-0.04-0.08-0.1-0.15-0.15-0.22c-0.11-0.15-0.21-0.29-0.31-0.44c-0.11-0.13-0.24-0.26-0.36-0.39
		c-0.06-0.06-0.11-0.14-0.18-0.19l-0.2-0.17c-0.13-0.11-0.26-0.23-0.42-0.32c-0.57-0.4-1.23-0.65-1.93-0.8
		C167.07,312.86,166.33,312.81,165.57,312.85"/>
	<path class="st4" d="M182.95,303.43c-0.87,0.06-1.73,0.13-2.59,0.21c-0.86,0.08-1.71,0.16-2.56,0.26
		c-0.43,0.05-0.86,0.09-1.28,0.14l-1.28,0.15c-0.86,0.1-1.71,0.2-2.59,0.26c0.81-0.33,1.65-0.58,2.5-0.78
		c0.85-0.21,1.71-0.34,2.58-0.44c0.87-0.09,1.75-0.14,2.62-0.11C181.22,303.13,182.1,303.2,182.95,303.43"/>
	<path class="st4" d="M183.46,308.18c-0.87,0.06-1.73,0.13-2.59,0.21c-0.86,0.08-1.71,0.16-2.56,0.26
		c-0.43,0.05-0.85,0.09-1.28,0.14l-1.28,0.15c-0.86,0.1-1.71,0.2-2.59,0.26c0.81-0.33,1.65-0.58,2.5-0.78
		c0.85-0.21,1.71-0.34,2.58-0.44c0.87-0.08,1.75-0.14,2.62-0.11C181.73,307.88,182.61,307.95,183.46,308.18"/>
	<path class="st4" d="M173.09,313.92c0.21-0.07,0.42-0.15,0.64-0.2c0.37-0.12,0.75-0.22,1.13-0.31c0.85-0.2,1.71-0.34,2.57-0.44
		c0.88-0.09,1.75-0.15,2.63-0.12c0.87,0.03,1.75,0.1,2.6,0.33c-0.88,0.05-1.73,0.13-2.59,0.2c-0.85,0.08-1.71,0.16-2.55,0.26
		c-0.43,0.05-0.86,0.08-1.29,0.15l-1.28,0.15c-0.42,0.04-0.85,0.09-1.27,0.14c-0.2,0.03-0.41,0.05-0.61,0.07L173.09,313.92z"/>
	<path class="st2" d="M94.18,345.92l0.34-1.81c0,0,13.29,1.08,15,2.58c1.71,1.5,0.6,4.13,0.12,4.52
		c-0.48,0.39-14.71-1.11-14.71-1.11L94.18,345.92z"/>
	<path class="st4" d="M108.41,344.94c-1.42-0.07-2.14-0.36-4.46-0.52c-1.44-0.1-2.86-0.04-3.89-0.02c0.01-0.07,0-0.15-0.01-0.22
		c1.31-0.15,3.09-0.28,3.57-0.24c0.71,0.06,2.09,0.14,2.78,0.32C107.08,344.43,107.76,344.64,108.41,344.94"/>
	<path class="st4" d="M106.5,343.39c-1.42-0.07-2.19-0.38-3.72-0.32c-0.76,0.03-1.9,0.08-2.97,0.13c-0.04-0.1-0.07-0.19-0.12-0.27
		c0.9-0.07,1.8-0.13,2.36-0.16C103.33,342.7,105.85,343.08,106.5,343.39"/>
	<path class="st4" d="M109.19,347.03c-1.42-0.08-2.14-0.36-4.46-0.52c-2.32-0.16-4.27,0.02-4.98-0.09c0.17-0.04-0.16-0.23,0.23-0.28
		c1.23-0.15,3.88-0.17,4.42-0.11c0.71,0.07,2.09,0.15,2.78,0.32C107.86,346.51,108.54,346.72,109.19,347.03"/>
	<path class="st4" d="M99.75,346.42c-0.01-0.35,0.01-0.69,0.04-1.03c0.02-0.33,0.06-0.7,0.04-0.97l0-0.02l0-0.02
		c0.01-0.06-0.02-0.21-0.04-0.32c-0.02-0.12-0.04-0.24-0.06-0.36c-0.04-0.24-0.1-0.48-0.16-0.71l-0.01-0.01
		c-0.04-0.16-0.08-0.32-0.14-0.48c0.15,0.09,0.27,0.23,0.37,0.38l0-0.01c0.15,0.23,0.29,0.47,0.36,0.73
		c0.04,0.13,0.07,0.26,0.09,0.39c0.01,0.14,0.04,0.24,0.02,0.44l0-0.04c-0.01,0.41-0.1,0.71-0.19,1.05
		C99.99,345.77,99.87,346.09,99.75,346.42"/>
	<path class="st2" d="M88.13,343.92l0.61,1.73c0,0,10.25-1.41,11.3-2.95c1.05-1.54,0.63-3.55,0.19-3.91
		c-0.64-0.51-3.51,0.05-6.31,0.17c-2.8,0.12-5.02-0.11-5.98,0.86C86.01,341.76,88.13,343.92,88.13,343.92"/>
	<path class="st4" d="M100.36,342.12c-0.13,0.52-0.45,1.01-0.89,1.36c-0.44,0.36-0.99,0.54-1.51,0.68
		c-1.06,0.25-2.13,0.32-3.19,0.37l0.1-0.06c-0.58,0.61-1.26,1.13-2.05,1.41c0.71-0.42,1.3-1,1.81-1.62l0.04-0.04l0.07-0.01
		c1.05-0.2,2.11-0.28,3.13-0.49c0.5-0.11,1.01-0.23,1.44-0.49C99.73,342.97,100.11,342.59,100.36,342.12"/>
</g>
<rect class="st11" width="841.89" height="595.28"/>
</svg>
